<?xml version="1.0" standalone="no"?>
<!DOCTYPE svg PUBLIC "-//W3C//DTD SVG 20010904//EN"
 "http://www.w3.org/TR/2001/REC-SVG-20010904/DTD/svg10.dtd">
<svg version="1.0" xmlns="http://www.w3.org/2000/svg"
 width="640.000000pt" height="640.000000pt" viewBox="0 0 640.000000 640.000000"
 preserveAspectRatio="xMidYMid meet">
<metadata>
Created by potrace 1.11, written by Peter Selinger 2001-2013
</metadata>
<g transform="translate(0.000000,640.000000) scale(0.100000,-0.100000)"
fill="#000000" stroke="none">
<path d="M3007 4984 c-1 -1 -31 -5 -67 -8 -72 -7 -165 -22 -259 -42 -72 -15
-251 -82 -356 -134 -311 -153 -571 -400 -738 -701 -29 -53 -95 -204 -102 -234
-2 -5 -12 -39 -23 -75 -35 -115 -50 -195 -57 -305 -3 -50 -3 -50 -76 -100
-208 -142 -332 -344 -375 -611 -3 -20 -8 -46 -10 -58 -2 -11 -7 -34 -9 -51 -3
-16 -18 -41 -34 -55 -38 -33 -59 -94 -57 -159 1 -51 0 -53 -31 -66 -47 -20
-112 -67 -155 -111 -51 -54 -88 -98 -88 -106 0 -4 -7 -13 -15 -21 -26 -26 -94
-173 -108 -233 -23 -95 -13 -163 38 -264 73 -145 165 -191 366 -183 59 2 95
-1 99 -8 14 -22 80 -36 132 -28 57 9 158 57 204 97 39 34 84 99 84 121 0 9 12
22 28 29 50 22 146 101 174 143 35 53 50 106 50 184 1 144 -75 281 -194 353
-33 20 -34 22 -8 72 34 68 23 137 -32 186 -31 29 -104 65 -113 56 -11 -10 2
91 20 163 19 73 68 176 101 212 26 28 24 30 44 -52 94 -394 354 -761 689 -976
42 -27 81 -53 86 -57 26 -22 228 -113 310 -140 234 -78 358 -97 615 -95 91 0
194 6 230 12 36 7 74 13 85 15 11 2 29 6 40 9 11 3 31 8 45 11 162 27 470 170
624 289 107 83 236 204 282 264 12 17 18 13 72 -42 83 -86 128 -122 204 -163
l68 -37 0 -57 c0 -73 -1 -67 20 -108 54 -104 141 -136 276 -99 35 9 47 8 75
-7 37 -20 140 -24 219 -10 62 11 55 11 155 -9 105 -21 216 -16 310 13 40 12
70 16 89 11 35 -10 107 -4 134 10 51 27 75 118 75 291 0 74 3 91 28 135 36 64
69 187 73 269 11 202 -141 396 -311 396 -23 0 -45 -5 -48 -10 -4 -6 -10 -8
-14 -5 -5 2 -34 -13 -65 -35 l-56 -39 -1 62 c-2 127 0 225 6 332 18 303 14
329 -55 369 -29 17 -53 20 -141 21 -96 0 -109 -2 -142 -25 -67 -46 -84 -121
-54 -240 9 -36 19 -87 22 -115 8 -64 5 -514 -4 -533 0 -1 -14 11 -31 28 -16
16 -36 31 -45 31 -8 1 -25 2 -37 3 -54 5 -158 -83 -158 -133 0 -9 -8 -3 -20
16 -33 55 -79 66 -147 38 -35 -15 -65 -42 -90 -81 -12 -18 -13 -18 -33 6 -11
14 -39 55 -61 92 l-40 66 26 84 c29 90 53 182 61 238 3 19 8 46 11 60 12 58
11 320 -2 410 -26 182 -86 368 -168 525 -72 137 -228 342 -328 430 -177 157
-296 232 -544 346 -27 12 -204 67 -235 73 -14 3 -50 10 -80 16 -113 23 -205
32 -341 34 -61 1 -111 1 -112 0z"/>
</g>
</svg>
